<?xml version="1.0" encoding="utf-8"?>
<!-- Generator: Adobe Illustrator 23.0.4, SVG Export Plug-In . SVG Version: 6.00 Build 0)  -->
<svg version="1.1" id="Layer_01" xmlns="http://www.w3.org/2000/svg" xmlns:xlink="http://www.w3.org/1999/xlink" x="0px" y="0px"
	 viewBox="0 0 1418.32 647.87" style="enable-background:new 0 0 1418.32 647.87;" xml:space="preserve">
<style type="text/css">
	.st0{fill:none;stroke:#000000;stroke-linecap:round;stroke-linejoin:round;}
</style>
<path class="st0" d="M401.73,647.37c-24.81,0-48.94-8.14-68.68-23.17c-19.74-15.03-34.01-36.12-40.61-60.04
	c-15.73-56.95-31.45-113.9-47.18-170.85c-2.71-9.83-4.09-19.98-4.09-30.18c0-83.08,0-166.16,0-249.25c0-15.04-5.97-29.46-16.6-40.09
	c-10.63-10.63-25.05-16.61-40.09-16.61c-48.99,0-97.98,0-146.97,0c-7.61,0-15.22,0-22.83,0c-3.76,0-7.36-1.49-10.02-4.15
	C1.99,50.38,0.5,46.78,0.5,43.02c0-9.45,0-18.9,0-28.35c0-3.76,1.49-7.36,4.15-10.02C7.31,1.99,10.91,0.5,14.67,0.5
	c7.61,0,15.22,0,22.83,0c433.07,0,866.13,0,1299.2,0c2.34,0,4.43,1.43,5.28,3.61c1.49,3.81,5.16,6.31,9.24,6.31s7.76-2.51,9.24-6.31
	c0.85-2.18,2.95-3.61,5.28-3.61c12.63,0,25.27,0,37.9,0c3.76,0,7.36,1.49,10.02,4.15c2.66,2.66,4.15,6.26,4.15,10.02
	c0,9.45,0,18.9,0,28.35c0,3.76-1.49,7.36-4.15,10.02c-2.66,2.66-6.26,4.15-10.02,4.15c-12.63,0-25.27,0-37.9,0
	c-2.34,0-4.43-1.43-5.28-3.61c-1.49-3.81-5.16-6.31-9.24-6.31s-7.76,2.51-9.24,6.31c-0.85,2.18-2.95,3.61-5.28,3.61
	c-34.28,0-68.56,0-102.85,0c-15.04,0-29.46,5.97-40.09,16.6c-10.63,10.63-16.61,25.05-16.61,40.09c0,83.08,0,166.16,0,249.25
	c0,10.2-1.38,20.35-4.09,30.18c-15.73,56.95-31.45,113.9-47.18,170.85c-6.6,23.92-20.87,45.01-40.61,60.04
	c-19.74,15.03-43.87,23.17-68.68,23.17C811.64,647.37,606.68,647.37,401.73,647.37z"/>
<ellipse transform="matrix(0.7071 -0.7071 0.7071 0.7071 -12.4402 27.6597)" class="st0" cx="27.17" cy="28.85" rx="9.92" ry="9.92"/>
</svg>
